<svg width="52" height="60" viewBox="0 0 52 60" fill="none" xmlns="http://www.w3.org/2000/svg">
<g id="Icon">
<g id="Vector" filter="url(#filter0_d_396_11449)">
<path d="M41 22.667C41 34.3337 26 44.3337 26 44.3337C26 44.3337 11 34.3337 11 22.667C11 18.6887 12.5804 14.8734 15.3934 12.0604C18.2064 9.24734 22.0218 7.66699 26 7.66699C29.9782 7.66699 33.7936 9.24734 36.6066 12.0604C39.4196 14.8734 41 18.6887 41 22.667Z" fill="#FF3D00"/>
<path d="M41 22.667C41 34.3337 26 44.3337 26 44.3337C26 44.3337 11 34.3337 11 22.667C11 18.6887 12.5804 14.8734 15.3934 12.0604C18.2064 9.24734 22.0218 7.66699 26 7.66699C29.9782 7.66699 33.7936 9.24734 36.6066 12.0604C39.4196 14.8734 41 18.6887 41 22.667Z" stroke="#FF3D00" stroke-width="2" stroke-linecap="round" stroke-linejoin="round"/>
</g>
</g>
<defs>
<filter id="filter0_d_396_11449" x="0" y="0.666992" width="52" height="58.667" filterUnits="userSpaceOnUse" color-interpolation-filters="sRGB">
<feFlood flood-opacity="0" result="BackgroundImageFix"/>
<feColorMatrix in="SourceAlpha" type="matrix" values="0 0 0 0 0 0 0 0 0 0 0 0 0 0 0 0 0 0 127 0" result="hardAlpha"/>
<feOffset dy="4"/>
<feGaussianBlur stdDeviation="5"/>
<feComposite in2="hardAlpha" operator="out"/>
<feColorMatrix type="matrix" values="0 0 0 0 0.0784314 0 0 0 0 0.0862745 0 0 0 0 0.0980392 0 0 0 0.4 0"/>
<feBlend mode="normal" in2="BackgroundImageFix" result="effect1_dropShadow_396_11449"/>
<feBlend mode="normal" in="SourceGraphic" in2="effect1_dropShadow_396_11449" result="shape"/>
</filter>
</defs>
</svg>
